<?xml version="1.0" encoding="utf-8"?>
<!-- Generator: Adobe Illustrator 23.0.3, SVG Export Plug-In . SVG Version: 6.00 Build 0)  -->
<svg version="1.1" id="Ebene_1" xmlns="http://www.w3.org/2000/svg" xmlns:xlink="http://www.w3.org/1999/xlink" x="0px" y="0px"
	 viewBox="0 0 290 38" style="enable-background:new 0 0 290 38;" xml:space="preserve">
<style type="text/css">
	.st0{fill:#1D1D1B;}
</style>
<title>bb_logo_low</title>
<path class="st0" d="M11.4,35.4c3.1,0,4.7-4,4.7-10c0-3,0-9-4.4-9S7,22.6,7,25.6S7,35.4,11.4,35.4 M0.1,0.4c1.1,0.1,2.3,0.2,3.4,0.2
	S5.8,0.5,7,0.4v16.7c1.4-2.4,3.9-3.9,6.7-3.8c6.5,0,9.8,5.7,9.8,11.4c0,3.1-0.7,6.8-2.8,9.2c-2.1,2.4-5.2,3.8-8.4,3.8
	c-2.7,0.1-5.2-1.2-6.8-3.4c-1.5,0.8-2.9,1.8-4.3,2.7h-1L0.1,0.4z"/>
<path class="st0" d="M28.5,13.7c1.1,0.1,2.3,0.2,3.4,0.2s2.3-0.1,3.4-0.2v6c1-3.5,3.2-6.4,8.1-6.4c-0.3,2.2-0.4,4.4-0.3,6.6
	l-0.4,0.4c-0.8-0.4-1.7-0.6-2.5-0.6c-2.1-0.1-4,1.2-4.6,3.2c-0.5,1.4-0.3,4.1-0.3,5.6v8.7c-1.2-0.1-2.3-0.2-3.4-0.2
	s-2.3,0.2-3.4,0.2L28.5,13.7z"/>
<path class="st0" d="M68.7,37.2c-1.1-0.1-2.2-0.2-3.3-0.2s-2.2,0.2-3.3,0.2v-3.5c-2.3,2.4-4.1,4-7.6,4c-2.6,0.1-5.1-1-6.7-3
	c-1.5-2.1-1.3-5.1-1.3-7.5V13.7c1.2,0.1,2.3,0.2,3.5,0.2s2.3-0.1,3.4-0.2v13.4c-0.1,1.4,0.1,2.7,0.5,4c0.5,1.5,1.9,2.5,3.5,2.5
	c4.3,0,4.3-4.2,4.3-7.3V13.7c1.2,0.1,2.3,0.2,3.4,0.2s2.3-0.1,3.4-0.2L68.7,37.2z"/>
<path class="st0" d="M74.4,13.7c1.1,0.1,2.2,0.2,3.3,0.2s2.2-0.1,3.3-0.2v3.6c2-2.3,4.6-4,7.7-4c6.3,0,7.9,3.9,7.9,9.7v14.1
	c-1.2-0.1-2.3-0.2-3.4-0.2s-2.3,0.2-3.4,0.2v-12c0-4.5-0.6-7.8-4.1-7.8c-4.3,0-4.3,5.7-4.3,8.7v11.1c-1.1-0.1-2.3-0.2-3.4-0.2
	s-2.3,0.2-3.4,0.2L74.4,13.7z"/>
<path class="st0" d="M106.9,25.8c0,3.1,0.4,9.6,4.7,9.6c3.8-0.1,4.9-6,4.9-11.3c0-4.7-1.3-8.7-4.6-8.7
	C107.9,15.5,106.9,20.1,106.9,25.8 M99.5,26c0-7.6,4.5-12.7,12.2-12.7s12.3,4.5,12.3,11.6c0,7.3-4.5,12.7-12.3,12.7
	C104.2,37.7,99.5,33.2,99.5,26"/>
<path class="st0" d="M150.5,35.4c3.1,0,4.7-4,4.7-10c0-3,0-9-4.4-9s-4.7,6.1-4.7,9.2S146.1,35.4,150.5,35.4 M139.2,0.4
	c1.2,0.1,2.3,0.2,3.4,0.2s2.3-0.1,3.4-0.2v16.7c1.4-2.4,3.9-3.9,6.7-3.8c6.5,0,9.8,5.7,9.8,11.4c0,3.1-0.7,6.8-2.8,9.2
	c-2.1,2.4-5.2,3.8-8.4,3.8c-2.7,0.1-5.2-1.2-6.8-3.4c-1.5,0.8-2.9,1.8-4.3,2.7h-1L139.2,0.4z"/>
<path class="st0" d="M178.4,24.5c-1.3,0.5-3.5,1-4.9,2.1c-1.1,1-1.7,2.5-1.6,4c0,1.8,0.6,3.9,2.7,3.9c3,0,3.7-2.8,3.8-5.3V24.5z
	 M185.3,32.9c0,1.8,0.6,2.4,2.5,2.3v1.1c-1.4,0.7-2.9,1.1-4.5,1.3c-2.2,0-4.2-1.4-4.9-3.5c-1.4,2.2-3.8,3.6-6.4,3.5
	c-4.1,0-7.1-2.2-7.1-6.4c0-4.6,2.9-6,9.1-7.4c1.3-0.2,2.5-0.7,3.6-1.3c0.5-0.5,0.8-1.2,0.8-1.9c0-2.3-2.4-4.3-4.7-4.3
	c-3.2,0-5.8,2.1-6.1,3h-0.4l-0.6-2.9c2.6-2.1,5.9-3.3,9.2-3.3c4.2,0,9.5,1.6,9.5,6.5L185.3,32.9z"/>
<path class="st0" d="M191.4,13.7c1.1,0.1,2.2,0.2,3.3,0.2s2.2-0.1,3.3-0.2v3.6c2-2.3,4.6-4,7.7-4c6.3,0,7.9,3.9,7.9,9.7v14.1
	c-1.1-0.1-2.3-0.2-3.4-0.2s-2.3,0.2-3.4,0.2v-12c0-4.5-0.6-7.8-4.1-7.8c-4.3,0-4.3,5.7-4.3,8.7v11.1c-1.1-0.1-2.3-0.2-3.4-0.2
	s-2.3,0.2-3.4,0.2L191.4,13.7z"/>
<path class="st0" d="M231,24.5c-1.3,0.5-3.5,1-4.9,2.1c-1.1,1-1.7,2.5-1.6,4c0,1.8,0.6,3.9,2.7,3.9c3,0,3.7-2.8,3.8-5.3V24.5z
	 M237.9,32.9c0,1.8,0.6,2.4,2.5,2.3v1.1c-1.4,0.7-2.9,1.1-4.5,1.3c-2.2,0-4.2-1.4-4.9-3.5c-1.4,2.2-3.8,3.6-6.4,3.5
	c-4.1,0-7.1-2.2-7.1-6.4c0-4.6,2.9-6,9.1-7.4c1.3-0.2,2.5-0.7,3.6-1.3c0.5-0.5,0.8-1.2,0.8-1.9c0-2.3-2.4-4.3-4.7-4.3
	c-3.2,0-5.8,2.1-6.1,3h-0.3l-0.7-2.9c2.6-2.1,5.9-3.3,9.2-3.3c4.2,0,9.5,1.6,9.5,6.5L237.9,32.9z"/>
<path class="st0" d="M243.9,13.7c1.1,0.1,2.2,0.2,3.4,0.2s2.2-0.1,3.3-0.2v3.6c2-2.3,4.6-4,7.7-4c6.3,0,7.9,3.9,7.9,9.7v14.1
	c-1.1-0.1-2.3-0.2-3.4-0.2s-2.3,0.2-3.4,0.2v-12c0-4.5-0.6-7.8-4.1-7.8c-4.3,0-4.3,5.7-4.3,8.7v11.1c-1.2-0.1-2.3-0.2-3.4-0.2
	s-2.3,0.2-3.4,0.2L243.9,13.7z"/>
<path class="st0" d="M275.8,1c2.1,0,3.9,1.7,4,3.8c-0.1,2.1-1.9,3.8-4,3.8c-2.1,0-3.8-1.7-3.9-3.8C271.9,2.7,273.6,1,275.8,1
	 M272.4,13.7c1.1,0.1,2.3,0.2,3.4,0.2s2.3-0.1,3.4-0.2v23.5c-1.1-0.1-2.3-0.2-3.4-0.2s-2.3,0.2-3.4,0.2V13.7z"/>
<path class="st0" d="M286.6,34.6v-1h0.8c0.4,0,0.8,0,0.8,0.5c0,0.6-0.6,0.5-1,0.5L286.6,34.6z M287.7,34.9c0.5,0,0.9-0.2,0.9-0.8
	c0-0.2-0.1-0.5-0.3-0.6c-0.2-0.1-0.5-0.2-0.7-0.2h-1.3v2.9h0.4v-1.3h0.6l0.8,1.3h0.5L287.7,34.9z M287.2,32.2
	c-1.4,0-2.6,1.2-2.5,2.6c0,1.4,1.2,2.6,2.6,2.5c1.4,0,2.5-1.2,2.5-2.6C289.8,33.4,288.7,32.2,287.2,32.2 M287.2,32.6
	c1.2,0,2.2,1,2.1,2.2s-1,2.2-2.2,2.1c-1.2,0-2.2-1-2.1-2.2C285,33.6,286,32.6,287.2,32.6C287.2,32.6,287.3,32.6,287.2,32.6"/>
</svg>
