<?xml version="1.0" encoding="utf-8"?>
<!-- Generator: Adobe Illustrator 23.0.3, SVG Export Plug-In . SVG Version: 6.00 Build 0)  -->
<svg version="1.1" id="Ebene_1" xmlns="http://www.w3.org/2000/svg" xmlns:xlink="http://www.w3.org/1999/xlink" x="0px" y="0px"
	 viewBox="0 0 290 57" style="enable-background:new 0 0 290 57;" xml:space="preserve">
<style type="text/css">
	.st0{fill:#000;}
</style>
<title>bb_logo_full</title>
<path class="st0" d="M11.5,35.1c3.1,0,4.7-4,4.7-10c0-3,0-9-4.4-9s-4.7,6.1-4.7,9.2S7.1,35.1,11.5,35.1 M0.3,0
	c1.1,0.1,2.3,0.2,3.4,0.2S6,0.1,7.1,0v16.7c1.4-2.4,3.9-3.9,6.7-3.8c6.5,0,9.8,5.7,9.8,11.4c0,3.1-0.7,6.8-2.9,9.2
	c-2.1,2.5-5.2,3.8-8.4,3.8c-2.7,0.1-5.2-1.2-6.8-3.4c-1.5,0.8-2.9,1.8-4.3,2.7h-1L0.3,0z"/>
<path class="st0" d="M28.6,13.4c1.1,0.1,2.3,0.2,3.4,0.2s2.3-0.1,3.4-0.2v6c1-3.5,3.2-6.4,8.1-6.4c-0.3,2.2-0.4,4.4-0.3,6.6
	l-0.4,0.4c-0.8-0.4-1.7-0.6-2.5-0.6c-2.1-0.1-4,1.2-4.6,3.2c-0.5,1.4-0.3,4.1-0.3,5.6v8.7c-1.2-0.1-2.3-0.2-3.4-0.2
	s-2.3,0.2-3.4,0.2V13.4z"/>
<path class="st0" d="M68.8,36.8c-1.1-0.1-2.2-0.2-3.3-0.2s-2.2,0.2-3.3,0.2v-3.5c-2.3,2.4-4.1,4-7.6,4c-2.6,0.1-5.1-1-6.7-3
	c-1.5-2.1-1.3-5.1-1.3-7.5V13.4c1.2,0.1,2.3,0.2,3.5,0.2s2.3-0.1,3.4-0.2v13.4c-0.1,1.4,0.1,2.7,0.5,4c0.5,1.5,1.9,2.5,3.5,2.5
	c4.3,0,4.3-4.2,4.3-7.3V13.4c1.2,0.1,2.3,0.2,3.4,0.2s2.3-0.1,3.4-0.2L68.8,36.8z"/>
<path class="st0" d="M74.5,13.4c1.1,0.1,2.2,0.2,3.3,0.2s2.2-0.1,3.3-0.2v3.6c2-2.3,4.6-4,7.7-4c6.3,0,7.9,3.9,7.9,9.7v14.1
	c-1.2-0.1-2.3-0.2-3.4-0.2s-2.3,0.2-3.4,0.2v-12c0-4.5-0.6-7.8-4.1-7.8c-4.3,0-4.3,5.7-4.3,8.7v11.1c-1.1-0.1-2.3-0.2-3.4-0.2
	s-2.3,0.2-3.4,0.2V13.4z"/>
<path class="st0" d="M107,25.5c0,3.1,0.4,9.6,4.7,9.6c3.8-0.1,4.9-6,4.9-11.3c0-4.7-1.3-8.7-4.6-8.7C108.1,15.1,107,19.7,107,25.5
	 M99.6,25.6c0-7.6,4.5-12.7,12.2-12.7S124,17.4,124,24.5c0,7.4-4.5,12.7-12.3,12.7C104.3,37.3,99.6,32.8,99.6,25.6"/>
<path class="st0" d="M150.6,35.1c3.1,0,4.7-4,4.7-10c0-3-0.1-9-4.4-9s-4.7,6.1-4.7,9.2S146.2,35.1,150.6,35.1 M139.4,0
	c1.1,0.1,2.3,0.2,3.4,0.2s2.3-0.1,3.4-0.2v16.7c1.4-2.4,3.9-3.9,6.7-3.8c6.5,0,9.8,5.7,9.8,11.4c0,3.1-0.7,6.8-2.8,9.2
	c-2.1,2.4-5.2,3.8-8.4,3.8c-2.7,0.1-5.2-1.2-6.8-3.4c-1.5,0.8-2.9,1.8-4.3,2.7h-1V0z"/>
<path class="st0" d="M178.6,24.1c-1.3,0.5-3.5,1-4.9,2.1c-1.1,1-1.7,2.5-1.6,4c0,1.8,0.6,3.9,2.7,3.9c3,0,3.7-2.8,3.8-5.3V24.1z
	 M185.4,32.6c0,1.8,0.6,2.4,2.5,2.3V36c-1.4,0.7-2.9,1.1-4.5,1.3c-2.2,0-4.2-1.4-4.9-3.5c-1.4,2.2-3.8,3.6-6.4,3.5
	c-4.1,0-7.1-2.2-7.1-6.4c0-4.6,2.9-6,9.1-7.4c1.3-0.2,2.5-0.7,3.6-1.3c0.5-0.5,0.8-1.2,0.8-1.9c0-2.3-2.4-4.3-4.7-4.3
	c-3.2,0-5.8,2.1-6.1,3h-0.4l-0.6-2.9c2.6-2.2,5.9-3.3,9.3-3.3c4.2,0,9.5,1.6,9.5,6.5L185.4,32.6z"/>
<path class="st0" d="M191.5,13.4c1.1,0.1,2.2,0.2,3.3,0.2s2.2-0.1,3.3-0.2v3.6c2-2.3,4.6-4,7.7-4c6.3,0,7.9,3.9,7.9,9.7v14.1
	c-1.1-0.1-2.3-0.2-3.4-0.2s-2.3,0.2-3.4,0.2v-12c0-4.5-0.6-7.8-4.1-7.8c-4.3,0-4.3,5.7-4.3,8.7v11.1c-1.1-0.1-2.3-0.2-3.4-0.2
	s-2.3,0.2-3.4,0.2L191.5,13.4z"/>
<path class="st0" d="M231.1,24.1c-1.3,0.5-3.5,1-4.9,2.1c-1.1,1-1.7,2.5-1.6,4c0,1.8,0.6,3.9,2.7,3.9c3,0,3.7-2.8,3.8-5.3
	L231.1,24.1z M238,32.6c0,1.8,0.6,2.4,2.5,2.3V36c-1.4,0.7-2.9,1.1-4.5,1.3c-2.2,0-4.2-1.4-4.9-3.5c-1.4,2.2-3.8,3.6-6.4,3.5
	c-4.1,0-7.1-2.2-7.1-6.4c0-4.6,2.9-6,9.1-7.4c1.3-0.2,2.5-0.7,3.6-1.3c0.5-0.5,0.8-1.2,0.8-1.9c0-2.3-2.4-4.3-4.7-4.3
	c-3.2,0-5.8,2.1-6.1,3H220l-0.7-2.9c2.6-2.1,5.9-3.3,9.2-3.3c4.2,0,9.5,1.6,9.5,6.5L238,32.6z"/>
<path class="st0" d="M244.1,13.4c1.1,0.1,2.2,0.2,3.3,0.2s2.2-0.1,3.3-0.2v3.6c2-2.3,4.6-4,7.7-4c6.3,0,7.9,3.9,7.9,9.7v14.1
	c-1.1-0.1-2.3-0.2-3.4-0.2s-2.3,0.2-3.4,0.2v-12c0-4.5-0.6-7.8-4.1-7.8c-4.3,0-4.3,5.6-4.3,8.7v11.1c-1.2-0.1-2.3-0.2-3.4-0.2
	s-2.3,0.2-3.4,0.2L244.1,13.4z"/>
<path class="st0" d="M275.9,0.7c2.1,0,3.9,1.7,4,3.8c-0.1,2.1-1.9,3.8-4,3.8c-2.1,0-3.8-1.7-3.9-3.8C272,2.4,273.8,0.7,275.9,0.7
	 M272.5,13.4c1.1,0.1,2.3,0.2,3.4,0.2s2.3-0.1,3.4-0.2v23.5c-1.1-0.1-2.3-0.2-3.4-0.2s-2.3,0.2-3.4,0.2V13.4z"/>
<polygon class="st0" points="5.4,44.8 7.7,44.8 7.7,56.7 4.6,56.7 2.4,48.4 2.4,48.4 2.4,56.7 0,56.7 0,44.8 3.2,44.8 5.3,53.2 
	5.4,53.2 "/>
<path class="st0" d="M22.1,54.1c0,0.5,0.2,0.7,0.7,0.7s0.7-0.2,0.7-0.7v-6.8c0-0.5-0.2-0.6-0.7-0.6s-0.7,0.2-0.7,0.6V54.1z
	 M19.6,47.3c0-2.2,1-2.8,3.2-2.8s3.2,0.6,3.2,2.8v6.8c0,2.2-1,2.8-3.2,2.8s-3.2-0.6-3.2-2.8V47.3z"/>
<polygon class="st0" points="38.9,46.9 37.1,46.9 37.1,44.8 43.3,44.8 43.3,46.9 41.5,46.9 41.5,56.7 38.9,56.7 "/>
<polygon class="st0" points="68.1,44.8 73.3,44.8 73.3,46.9 70.6,46.9 70.6,49.4 73.1,49.4 73.1,51.6 70.6,51.6 70.6,56.7 
	68.1,56.7 "/>
<path class="st0" d="M87.3,54.1c0,0.5,0.2,0.7,0.7,0.7s0.7-0.2,0.7-0.7v-6.8c0-0.5-0.2-0.6-0.7-0.6s-0.7,0.2-0.7,0.6V54.1z
	 M84.8,47.3c0-2.2,1-2.8,3.3-2.8s3.2,0.6,3.2,2.8v6.8c0,2.2-1.1,2.8-3.2,2.8s-3.3-0.6-3.3-2.8V47.3z"/>
<path class="st0" d="M105,49.4h0.6c0.5,0,0.7-0.2,0.7-1.2s-0.1-1.2-0.7-1.2H105V49.4z M102.5,56.7v-12h3.2c2.2,0,3.2,0.5,3.2,2.4
	v1.4c0.1,0.9-0.6,1.7-1.4,1.8l0,0c1,0.2,1.5,0.8,1.5,2.4v2.6c0,0.9,0,1.1,0.2,1.3h-2.5c-0.1-0.1-0.1-0.3-0.2-0.5v-4
	c0-0.4-0.3-0.6-0.8-0.6H105v5.1H102.5z"/>
<polygon class="st0" points="133.9,44.8 139.1,44.8 139.1,46.9 136.4,46.9 136.4,49.4 138.9,49.4 138.9,51.6 136.4,51.6 136.4,54.6 
	139.1,54.6 139.1,56.7 133.9,56.7 "/>
<polygon class="st0" points="157.6,44.8 155.5,56.7 152.2,56.7 150.1,44.8 152.7,44.8 153.8,54 153.9,54 155,44.8 "/>
<polygon class="st0" points="168.9,44.8 174.1,44.8 174.1,46.9 171.5,46.9 171.5,49.4 174,49.4 174,51.6 171.5,51.6 171.5,54.6 
	174.1,54.6 174.1,56.7 168.9,56.7 "/>
<path class="st0" d="M188.4,49.4h0.6c0.5,0,0.7-0.2,0.7-1.2s-0.1-1.2-0.7-1.2h-0.6L188.4,49.4z M185.8,56.7v-12h3.2
	c2.2,0,3.2,0.5,3.2,2.4v1.4c0.1,0.9-0.6,1.7-1.4,1.8l0,0c1,0.2,1.5,0.8,1.5,2.4v2.6c0,0.9,0,1.1,0.2,1.3H190
	c-0.1-0.1-0.1-0.3-0.1-0.5v-4c0-0.4-0.3-0.6-0.8-0.6h-0.6v5.1H185.8z"/>
<polygon class="st0" points="206.2,49.1 206.2,49.1 207.5,44.8 210.1,44.8 207.4,52.2 207.4,56.7 204.9,56.7 204.9,52.2 202.3,44.8 
	204.9,44.8 "/>
<path class="st0" d="M222.6,54.6h0.6c0.7,0,0.8-0.2,0.9-1.5s-0.1-1.5-0.9-1.5h-0.6V54.6z M222.6,49.4h0.6c0.6,0,0.7-0.2,0.7-1.2
	s-0.2-1.2-0.7-1.2h-0.6V49.4z M220.1,44.8h3.7c1.9,0,2.7,0.8,2.7,2.5v1c0.1,1-0.5,2-1.5,2.2l0,0c1,0.1,1.7,1,1.6,1.9c0,0,0,0,0,0.1
	v1.8c0,1.6-0.8,2.4-2.7,2.4h-3.7L220.1,44.8z"/>
<path class="st0" d="M240.6,54.1c0,0.5,0.2,0.7,0.7,0.7s0.7-0.2,0.7-0.7v-6.8c0-0.5-0.2-0.6-0.7-0.6s-0.7,0.2-0.7,0.6V54.1z
	 M238.1,47.3c0-2.2,1-2.8,3.2-2.8s3.2,0.6,3.2,2.8v6.8c0,2.2-1,2.8-3.2,2.8s-3.2-0.6-3.2-2.8V47.3z"/>
<path class="st0" d="M258.2,54.6h0.6c0.5,0,0.7-0.3,0.7-1.1V48c0-0.8-0.2-1-0.7-1h-0.6V54.6z M255.7,44.8h3.1c2.2,0,3.2,0.6,3.2,2.8
	v6.3c0,2.2-1,2.8-3.2,2.8h-3.1L255.7,44.8z"/>
<polygon class="st0" points="275.7,49.1 275.8,49.1 277,44.8 279.6,44.8 277,52.2 277,56.7 274.5,56.7 274.5,52.2 271.8,44.8 
	274.4,44.8 "/>
<path class="st0" d="M286.7,34.3v-1h0.8c0.4,0,0.8,0,0.8,0.5c0,0.6-0.6,0.5-1,0.5L286.7,34.3z M287.8,34.6c0.5,0,0.9-0.2,0.9-0.8
	c0-0.2-0.1-0.5-0.3-0.6c-0.2-0.1-0.5-0.2-0.7-0.2h-1.3v2.9h0.4v-1.3h0.6l0.8,1.3h0.5L287.8,34.6z M287.4,31.9
	c-1.4,0-2.6,1.2-2.5,2.6c0,1.4,1.2,2.6,2.6,2.5c1.4,0,2.5-1.2,2.5-2.6C290,33,288.8,31.9,287.4,31.9 M287.4,32.3
	c1.2,0,2.2,1.1,2.1,2.3c0,1.2-1.1,2.2-2.3,2.1c-1.2,0-2.1-1-2.1-2.2C285.1,33.2,286.1,32.3,287.4,32.3
	C287.3,32.3,287.3,32.3,287.4,32.3"/>
</svg>
